Coordinates
version=1
nRows=25
nColumns=23
inDegrees=yes

Units are S.I. units (second, meters, Newtons, ...)
If the header above contains a line with 'inDegrees', this indicates whether rotational values are in degrees (yes) or radians (no).

endheader
time	pelvis_tilt	pelvis_list	pelvis_rotation	pelvis_tx	pelvis_ty	pelvis_tz	hip_flexion_r	hip_adduction_r	hip_rotation_r	knee_angle_r	knee_angle_r_beta	ankle_angle_r	subtalar_angle_r	mtp_angle_r	hip_flexion_l	hip_adduction_l	hip_rotation_l	knee_angle_l	knee_angle_l_beta	ankle_angle_l	subtalar_angle_l	mtp_angle_l
     22.50000000	     -5.92037506	     -6.94932585	     -6.53020468	      2.41266055	      0.94641051	      1.03959048	     30.56933240	     12.22974251	     -0.91397792	     44.04070061	      0.76865523	     13.53528821	     -3.32178398	      0.00000000	     14.73416721	    -11.43078257	     -5.59781133	    112.41887407	      1.96207949	    -13.06487626	     -9.76968889	      0.00000000
     22.50666667	     -6.00256810	     -6.84355948	     -6.36301065	      2.41019483	      0.94379023	      1.03946041	     29.47615216	     12.14446187	     -0.56933575	     45.45473414	      0.79333477	     15.89564827	     -3.19468519	      0.00000000	     17.87473254	    -11.67616682	     -4.66427749	    113.99485250	      1.98958551	    -11.85481210	     -9.30353551	      0.00000000
     22.51333333	     -5.66588520	     -6.78144029	     -6.08758718	      2.40788940	      0.94252538	      1.03910000	     27.53182518	     12.12413444	      0.03081741	     46.18592630	      0.80609648	     18.06956033	     -3.37972631	      0.00000000	     20.57098301	    -11.80613783	     -3.71305955	    115.02431142	      2.00755295	    -10.88056417	     -9.20964248	      0.00000000
     22.52000000	     -5.92848383	     -6.64619511	     -5.74239925	      2.40544415	      0.94093128	      1.03868854	     26.07192016	     11.90507561	      0.23506329	     46.60837676	      0.81346963	     20.12788866	     -2.92934230	      0.00000000	     24.09545832	    -11.80898170	     -2.63948666	    115.80801010	      2.02123108	     -9.65562774	     -8.29636338	      0.00000000
     22.52666667	     -5.68595091	     -6.37317321	     -5.42510495	      2.40344117	      0.94102757	      1.03819584	     23.65855602	     11.62363533	      0.86944105	     46.32093351	      0.80845280	     21.62087509	     -2.86241100	      0.00000000	     26.88022021	    -11.48433615	     -1.85990655	    115.89712258	      2.02278638	     -8.93460553	     -8.29365050	      0.00000000
     22.53333333	     -5.50634486	     -6.27289458	     -4.73542559	      2.40175956	      0.94139484	      1.03735757	     21.15744657	     11.25210059	      0.78486220	     45.72458683	      0.79804459	     23.23661307	     -2.49699917	      0.00000000	     29.77993829	    -11.17023534	     -0.76420994	    115.66446836	      2.01872580	     -7.85276089	     -7.78290128	      0.00000000
     22.54000000	     -5.12269202	     -5.98551245	     -4.11830455	      2.40064070	      0.94293210	      1.03658368	     18.15002697	     10.66695709	      0.71583230	     44.60306196	      0.77847029	     24.31152892	     -1.70175159	      0.00000000	     32.17650799	    -10.58951280	     -0.04632323	    114.82697893	      2.00410885	     -6.91290400	     -7.46432767	      0.00000000
     22.54666667	     -4.66871881	     -5.60193255	     -3.42238677	      2.40007541	      0.94523612	      1.03574909	     14.84663934	      9.99808965	      0.62049447	     43.03591267	      0.75111837	     24.85525052	     -1.14285207	      0.00000000	     34.24811985	     -9.77702186	      0.52666179	    113.48689247	      1.98071993	     -6.11469990	     -7.43194052	      0.00000000
     22.55333333	     -4.19467255	     -5.09994241	     -2.68286714	      2.40000536	      0.94822104	      1.03492346	     11.35762693	      9.23247833	      0.45678353	     41.10203458	      0.71736583	     24.91052267	     -0.63436253	      0.00000000	     36.02658026	     -8.76399572	      0.91781345	    111.67722155	      1.94913522	     -5.32544820	     -7.50941447	      0.00000000
     22.56000000	     -3.56069359	     -4.46015725	     -2.02226471	      2.40060538	      0.95201339	      1.03418481	      7.52821860	      8.35579212	      0.29873226	     38.81895703	      0.67751861	     24.46899968	     -0.06071579	      0.00000000	     37.25187559	     -7.65114178	      0.98618071	    109.36305664	      1.90874542	     -4.55428841	     -7.70026963	      0.00000000
     22.56666667	     -3.06764514	     -3.71480130	     -1.35685674	      2.40164457	      0.95610276	      1.03344048	      3.75896995	      7.44288716	      0.12261223	     36.25672478	      0.63279922	     23.38739694	      0.28367496	      0.00000000	     38.33939442	     -6.39187811	      0.91744784	    106.66288858	      1.86161860	     -3.85900586	     -7.99539247	      0.00000000
     22.57333333	     -2.64852652	     -2.87089056	     -0.75482800	      2.40310021	      0.96048910	      1.03273382	     -0.00116625	      6.50763453	      0.01941355	     33.45584431	      0.58391464	     21.66933456	      0.43397320	      0.00000000	     39.20166827	     -5.05247904	      0.67508962	    103.57869079	      1.80778919	     -3.23890194	     -8.41313644	      0.00000000
     22.58000000	     -2.38347653	     -1.95388401	     -0.24001139	      2.40489778	      0.96500178	      1.03209693	     -3.63765297	      5.61042568	      0.14832192	     30.44716251	      0.53140323	     19.23815113	      0.09624094	      0.00000000	     39.94814264	     -3.68083884	      0.28536633	    100.14781410	      1.74790909	     -2.69494136	     -8.87272454	      0.00000000
     22.58666667	     -2.28714005	     -0.97001089	      0.24787566	      2.40691042	      0.96945886	      1.03137092	     -7.05635146	      4.65295145	      0.19202754	     27.37565497	      0.47779531	     16.33624009	     -0.14220760	      0.00000000	     40.63134850	     -2.22072334	     -0.16809628	     96.40288082	      1.68254768	     -2.29937558	     -9.55693408	      0.00000000
     22.59333333	     -2.41427714	      0.05948331	      0.57285278	      2.40903406	      0.97374963	      1.03070040	    -10.17835271	      3.71922977	      0.65750673	     24.25953792	      0.42340881	     12.72057097	     -1.00207669	      0.00000000	     41.32387054	     -0.80030797	     -0.75973574	     92.37533644	      1.61225377	     -1.97939163	    -10.16137477	      0.00000000
     22.60000000	     -2.77117693	      1.10820419	      0.90332950	      2.41120473	      0.97773053	      1.02987465	    -12.89486555	      2.70683295	      0.87475335	     21.31421406	      0.37200321	      8.84723271	     -1.46315931	      0.00000000	     42.06880356	      0.67033785	     -1.33102557	     88.07939411	      1.53727543	     -1.79018905	    -10.91819249	      0.00000000
     22.60666667	     -3.41357422	      2.09530019	      1.12954158	      2.41327491	      0.98134840	      1.02903171	    -15.18508466	      1.81278469	      1.70956015	     18.43965836	      0.32183275	      4.34245154	     -2.92480226	      0.00000000	     42.95044255	      2.01736000	     -1.91627138	     83.55709409	      1.45834641	     -1.62882545	    -11.47343819	      0.00000000
     22.61333333	     -4.16994252	      3.12874920	      1.31632822	      2.41518619	      0.98467335	      1.02811093	    -16.94844651	      0.67499340	      1.76914571	     16.23527284	      0.28335897	      0.10770979	     -2.97998459	      0.00000000	     43.76910480	      3.39676619	     -2.50310344	     78.77213287	      1.37483308	     -1.57819809	    -12.10679748	      0.00000000
     22.62000000	     -5.09025492	      4.06353108	      1.46768131	      2.41689682	      0.98767706	      1.02715933	    -18.21126202	     -0.41557754	      1.76893881	     14.53335424	      0.25365488	     -4.17540353	     -2.91789459	      0.00000000	     44.59905887	      4.63508350	     -3.01809090	     73.78109938	      1.28772311	     -1.50558397	    -12.53113705	      0.00000000
     22.62666667	     -6.05885262	      4.91112880	      1.56560455	      2.41838847	      0.99049450	      1.02626217	    -18.99301212	     -1.50739840	      1.44907206	     13.55445418	      0.23656985	     -8.22384374	     -2.24672306	      0.00000000	     45.30543816	      5.73448382	     -3.46326612	     68.58385732	      1.19701412	     -1.39474294	    -12.71731003	      0.00000000
     22.63333333	     -7.04725528	      5.62191236	      1.64302837	      2.41966983	      0.99310426	      1.02541317	    -19.38120763	     -2.48528135	      1.13225998	     13.20925416	      0.23054498	    -12.11417618	     -1.73480256	      0.00000000	     45.86638332	      6.65080671	     -3.81458917	     63.23305737	      1.10362505	     -1.17596052	    -12.49524438	      0.00000000
     22.64000000	     -8.09456861	      6.14779650	      1.63905912	      2.42074976	      0.99544693	      1.02468963	    -19.29286418	     -3.31714543	      0.89697534	     13.57438003	      0.23691763	    -15.74567229	     -1.28114052	      0.00000000	     46.33713933	      7.28357567	     -4.13708863	     57.79539533	      1.00871994	     -0.81555345	    -11.83647020	      0.00000000
     22.64666667	     -8.99195004	      6.53527588	      1.63528558	      2.42172942	      0.99768123	      1.02396852	    -19.06745321	     -3.97593271	      0.82992448	     14.49568278	      0.25299739	    -19.01567219	     -0.96949590	      0.00000000	     46.49041084	      7.81075715	     -4.28529579	     52.30195843	      0.91284138	     -0.26511126	    -10.89797899	      0.00000000
     22.65333333	     -9.62054589	      6.86252743	      1.58893760	      2.42258405	      0.99989529	      1.02332233	    -18.80175156	     -4.56621494	      0.74626175	     16.05303449	      0.28017831	    -21.83157651	     -1.00346037	      0.00000000	     46.20059515	      8.25962966	     -4.37965142	     46.76746765	      0.81624629	      0.27954819	     -9.63927058	      0.00000000
     22.66000000	    -10.07776258	      7.06505286	      1.52306092	      2.42327807	      1.00186109	      1.02273529	    -18.39917563	     -4.98824110	      0.79610718	     18.25551193	      0.31861879	    -24.01581082	     -1.28615496	      0.00000000	     45.63187459	      8.59558622	     -4.36167127	     41.34405481	      0.72158988	      0.93119827	     -8.07107706	      0.00000000
